<svg fill="#34E0A1" xmlns="http://www.w3.org/2000/svg" data-name="Layer 1" viewBox="0 0 100 125" x="0px" y="0px"><title>Artboard 18</title><path d="M5.53,51.88A43.4,43.4,0,0,1,86.1,23.4a16,16,0,0,0-5.53,3.51l-5.44,5.36L59.35,28.86a14.71,14.71,0,0,0-7.39.31,14.55,14.55,0,0,0-5.42,3l-3.68,3.24a10.26,10.26,0,0,0,.84,16.07,14.41,14.41,0,0,0-2.31,1.67l-1.7,1.5A10.23,10.23,0,0,0,37.32,67L22.11,79.39A43.24,43.24,0,0,1,5.53,51.88Zm8.24,45.24a18.37,18.37,0,0,0,2.45.79l.33.08c.31.08.61.15.88.2l.35.06c.3.06.61.11.88.14a20.7,20.7,0,0,0,5.13.05l.88-.13a20.52,20.52,0,0,0,8.66-3.58L51.5,81l-2.06-5.4L44,72.65,27.12,86.41a10.24,10.24,0,0,1-4.68,2,10.85,10.85,0,0,1-2.66.08l-.33,0-.29,0-.42-.08-.26-.05A9,9,0,0,1,17.2,88a10.57,10.57,0,0,1-6.83-7.61A51.71,51.71,0,0,1,2.87,70,18.93,18.93,0,0,0,2,72.28,20,20,0,0,0,5.61,91.22,20.19,20.19,0,0,0,13.76,97.12ZM97.18,33.43a7.27,7.27,0,0,0-10.57-.38l-8.75,8.61-20.32-4.4a6.08,6.08,0,0,0-5.29,1.38l-3.68,3.24a1.65,1.65,0,0,0,.27,2.67l16.43,9.49-5.63,5.54-7.76-1.33a5.72,5.72,0,0,0-4.77,1.35l-1.71,1.51a1.65,1.65,0,0,0,.31,2.7l10.63,5.69,4.3,11.27a1.65,1.65,0,0,0,2.64.65L65,79.92a5.72,5.72,0,0,0,1.94-4.56l-.35-8,6.12-4.82L80,80a1.66,1.66,0,0,0,2,.94,1.66,1.66,0,0,0,.61-.34l3.68-3.24a6.08,6.08,0,0,0,2-5.07l-1.8-20.71L96.22,44a7.28,7.28,0,0,0,1-10.54Z"/></svg>
